<?xml version="1.0" standalone="no"?>
<svg xmlns:xlink="http://www.w3.org/1999/xlink" id="wave" style="transform:rotate(180deg); transition: 0.3s" viewBox="0 0 1440 490" version="1.1" xmlns="http://www.w3.org/2000/svg"><defs><linearGradient id="sw-gradient-0" x1="0" x2="0" y1="1" y2="0"><stop stop-color="rgba(5, 12, 156, 1)" offset="0%"/><stop stop-color="rgba(5, 12, 156, 1)" offset="100%"/></linearGradient></defs><path style="transform:translate(0, 0px); opacity:1" fill="url(#sw-gradient-0)" d="M0,392L40,375.7C80,359,160,327,240,285.8C320,245,400,196,480,179.7C560,163,640,180,720,212.3C800,245,880,294,960,318.5C1040,343,1120,343,1200,318.5C1280,294,1360,245,1440,261.3C1520,278,1600,359,1680,392C1760,425,1840,408,1920,383.8C2000,359,2080,327,2160,326.7C2240,327,2320,359,2400,318.5C2480,278,2560,163,2640,147C2720,131,2800,212,2880,269.5C2960,327,3040,359,3120,367.5C3200,376,3280,359,3360,302.2C3440,245,3520,147,3600,147C3680,147,3760,245,3840,285.8C3920,327,4000,310,4080,261.3C4160,212,4240,131,4320,106.2C4400,82,4480,114,4560,138.8C4640,163,4720,180,4800,204.2C4880,229,4960,261,5040,253.2C5120,245,5200,196,5280,204.2C5360,212,5440,278,5520,326.7C5600,376,5680,408,5720,424.7L5760,441L5760,490L5720,490C5680,490,5600,490,5520,490C5440,490,5360,490,5280,490C5200,490,5120,490,5040,490C4960,490,4880,490,4800,490C4720,490,4640,490,4560,490C4480,490,4400,490,4320,490C4240,490,4160,490,4080,490C4000,490,3920,490,3840,490C3760,490,3680,490,3600,490C3520,490,3440,490,3360,490C3280,490,3200,490,3120,490C3040,490,2960,490,2880,490C2800,490,2720,490,2640,490C2560,490,2480,490,2400,490C2320,490,2240,490,2160,490C2080,490,2000,490,1920,490C1840,490,1760,490,1680,490C1600,490,1520,490,1440,490C1360,490,1280,490,1200,490C1120,490,1040,490,960,490C880,490,800,490,720,490C640,490,560,490,480,490C400,490,320,490,240,490C160,490,80,490,40,490L0,490Z"/></svg>