<?xml version="1.0" standalone="no"?>
<svg xmlns:xlink="http://www.w3.org/1999/xlink" id="wave" style="transform:rotate(180deg); transition: 0.3s" viewBox="0 0 1440 490" version="1.1" xmlns="http://www.w3.org/2000/svg"><defs><linearGradient id="sw-gradient-0" x1="0" x2="0" y1="1" y2="0"><stop stop-color="rgba(5, 12, 156, 1)" offset="0%"/><stop stop-color="rgba(255, 255, 255, 1)" offset="100%"/></linearGradient></defs><path style="transform:translate(0, 0px); opacity:1" fill="url(#sw-gradient-0)" d="M0,196L60,220.5C120,245,240,294,360,269.5C480,245,600,147,720,122.5C840,98,960,147,1080,204.2C1200,261,1320,327,1440,367.5C1560,408,1680,425,1800,392C1920,359,2040,278,2160,220.5C2280,163,2400,131,2520,114.3C2640,98,2760,98,2880,155.2C3000,212,3120,327,3240,310.3C3360,294,3480,147,3600,89.8C3720,33,3840,65,3960,114.3C4080,163,4200,229,4320,277.7C4440,327,4560,359,4680,334.8C4800,310,4920,229,5040,187.8C5160,147,5280,147,5400,130.7C5520,114,5640,82,5760,122.5C5880,163,6000,278,6120,285.8C6240,294,6360,196,6480,138.8C6600,82,6720,65,6840,49C6960,33,7080,16,7200,8.2C7320,0,7440,0,7560,0C7680,0,7800,0,7920,16.3C8040,33,8160,65,8280,81.7C8400,98,8520,98,8580,98L8640,98L8640,490L8580,490C8520,490,8400,490,8280,490C8160,490,8040,490,7920,490C7800,490,7680,490,7560,490C7440,490,7320,490,7200,490C7080,490,6960,490,6840,490C6720,490,6600,490,6480,490C6360,490,6240,490,6120,490C6000,490,5880,490,5760,490C5640,490,5520,490,5400,490C5280,490,5160,490,5040,490C4920,490,4800,490,4680,490C4560,490,4440,490,4320,490C4200,490,4080,490,3960,490C3840,490,3720,490,3600,490C3480,490,3360,490,3240,490C3120,490,3000,490,2880,490C2760,490,2640,490,2520,490C2400,490,2280,490,2160,490C2040,490,1920,490,1800,490C1680,490,1560,490,1440,490C1320,490,1200,490,1080,490C960,490,840,490,720,490C600,490,480,490,360,490C240,490,120,490,60,490L0,490Z"/><defs><linearGradient id="sw-gradient-1" x1="0" x2="0" y1="1" y2="0"><stop stop-color="rgba(5, 12, 156, 1)" offset="0%"/><stop stop-color="rgba(255, 255, 255, 1)" offset="100%"/></linearGradient></defs><path style="transform:translate(0, 50px); opacity:0.9" fill="url(#sw-gradient-1)" d="M0,147L60,155.2C120,163,240,180,360,212.3C480,245,600,294,720,318.5C840,343,960,343,1080,318.5C1200,294,1320,245,1440,204.2C1560,163,1680,131,1800,114.3C1920,98,2040,98,2160,122.5C2280,147,2400,196,2520,236.8C2640,278,2760,310,2880,318.5C3000,327,3120,310,3240,318.5C3360,327,3480,359,3600,383.8C3720,408,3840,425,3960,416.5C4080,408,4200,376,4320,326.7C4440,278,4560,212,4680,196C4800,180,4920,212,5040,204.2C5160,196,5280,147,5400,138.8C5520,131,5640,163,5760,187.8C5880,212,6000,229,6120,220.5C6240,212,6360,180,6480,212.3C6600,245,6720,343,6840,318.5C6960,294,7080,147,7200,73.5C7320,0,7440,0,7560,32.7C7680,65,7800,131,7920,196C8040,261,8160,327,8280,310.3C8400,294,8520,196,8580,147L8640,98L8640,490L8580,490C8520,490,8400,490,8280,490C8160,490,8040,490,7920,490C7800,490,7680,490,7560,490C7440,490,7320,490,7200,490C7080,490,6960,490,6840,490C6720,490,6600,490,6480,490C6360,490,6240,490,6120,490C6000,490,5880,490,5760,490C5640,490,5520,490,5400,490C5280,490,5160,490,5040,490C4920,490,4800,490,4680,490C4560,490,4440,490,4320,490C4200,490,4080,490,3960,490C3840,490,3720,490,3600,490C3480,490,3360,490,3240,490C3120,490,3000,490,2880,490C2760,490,2640,490,2520,490C2400,490,2280,490,2160,490C2040,490,1920,490,1800,490C1680,490,1560,490,1440,490C1320,490,1200,490,1080,490C960,490,840,490,720,490C600,490,480,490,360,490C240,490,120,490,60,490L0,490Z"/><defs><linearGradient id="sw-gradient-2" x1="0" x2="0" y1="1" y2="0"><stop stop-color="rgba(5, 12, 156, 1)" offset="0%"/><stop stop-color="rgba(5, 12, 156, 1)" offset="100%"/></linearGradient></defs><path style="transform:translate(0, 100px); opacity:0.8" fill="url(#sw-gradient-2)" d="M0,49L60,81.7C120,114,240,180,360,187.8C480,196,600,147,720,155.2C840,163,960,229,1080,212.3C1200,196,1320,98,1440,106.2C1560,114,1680,229,1800,302.2C1920,376,2040,408,2160,392C2280,376,2400,310,2520,245C2640,180,2760,114,2880,98C3000,82,3120,114,3240,155.2C3360,196,3480,245,3600,245C3720,245,3840,196,3960,171.5C4080,147,4200,147,4320,163.3C4440,180,4560,212,4680,187.8C4800,163,4920,82,5040,81.7C5160,82,5280,163,5400,236.8C5520,310,5640,376,5760,408.3C5880,441,6000,441,6120,392C6240,343,6360,245,6480,212.3C6600,180,6720,212,6840,204.2C6960,196,7080,147,7200,171.5C7320,196,7440,294,7560,318.5C7680,343,7800,294,7920,245C8040,196,8160,147,8280,179.7C8400,212,8520,327,8580,383.8L8640,441L8640,490L8580,490C8520,490,8400,490,8280,490C8160,490,8040,490,7920,490C7800,490,7680,490,7560,490C7440,490,7320,490,7200,490C7080,490,6960,490,6840,490C6720,490,6600,490,6480,490C6360,490,6240,490,6120,490C6000,490,5880,490,5760,490C5640,490,5520,490,5400,490C5280,490,5160,490,5040,490C4920,490,4800,490,4680,490C4560,490,4440,490,4320,490C4200,490,4080,490,3960,490C3840,490,3720,490,3600,490C3480,490,3360,490,3240,490C3120,490,3000,490,2880,490C2760,490,2640,490,2520,490C2400,490,2280,490,2160,490C2040,490,1920,490,1800,490C1680,490,1560,490,1440,490C1320,490,1200,490,1080,490C960,490,840,490,720,490C600,490,480,490,360,490C240,490,120,490,60,490L0,490Z"/></svg>